# xmcd
# 
# Track frame offsets:
#     150
#     23260
#     48190
#     72802
#     100728
# 
# Disc length: 1574
# 
# Revision: 0
# Processed by: cddbd v1.5.2PL0 Copyright (c) Steve Scherf et al.
# Submitted via: fre:ac v1.0.17
# 
DISCID=2d062405
DTITLE=Grave - Morbid Ascent
DYEAR=2013
DGENRE=Death Metal
TTITLE0=Venial Sin
TTITLE1=Morbid Ascent
TTITLE2=Possessed (originally by Satyricon)
TTITLE3=Epos (Risen From The Tomb remix)
TTITLE4=Reality Of Life (new version)
EXTD=
EXTT0=
EXTT1=
EXTT2=
EXTT3=
EXTT4=
PLAYORDER=
